<svg width="16" height="16" viewBox="0 0 16 16" fill="none" xmlns="http://www.w3.org/2000/svg">
<path d="M1.67763 6.34658L2.06942 6.79863L0.426943 7.95389V7.70275L2.06942 8.85298L1.67763 9.30504L0 8.09453V7.56211L1.67763 6.34658Z" fill="#3D4852"/>
<path d="M4.43495 9.44568V8.01919C4.43495 7.83837 4.39142 7.70191 4.30435 7.60983C4.21729 7.51774 4.10344 7.4717 3.9628 7.4717C3.84393 7.4717 3.73845 7.50435 3.64636 7.56964C3.55595 7.63494 3.48479 7.73372 3.43289 7.86599C3.38099 7.99659 3.35503 8.15983 3.35503 8.35572H3.15914C3.15914 8.03928 3.19849 7.77642 3.27718 7.56713C3.35587 7.35617 3.46721 7.19879 3.6112 7.09498C3.75519 6.99118 3.92429 6.93927 4.11851 6.93927C4.31942 6.93927 4.48685 6.98448 4.62079 7.07489C4.75641 7.16363 4.85771 7.2892 4.92468 7.45161C4.99332 7.61401 5.02765 7.80321 5.02765 8.01919V9.44568H4.43495ZM2.76234 9.44568V6H3.35503V9.44568H2.76234Z" fill="#3D4852"/>
<path d="M6.71556 9.516C6.57157 9.516 6.4393 9.48921 6.31876 9.43564C6.19988 9.38206 6.10445 9.30002 6.03245 9.18951C5.96213 9.07901 5.92697 8.93837 5.92697 8.76759V6.36165H6.51967V8.7475C6.51967 8.94842 6.6151 9.04887 6.80597 9.04887C6.86457 9.04887 6.92317 9.04218 6.98177 9.02878C7.04037 9.01539 7.10734 8.9953 7.18269 8.96851L7.26808 9.38541C7.17432 9.42224 7.08307 9.45321 6.99433 9.47833C6.90559 9.50344 6.81267 9.516 6.71556 9.516ZM5.58542 7.40138V7.00959H7.18269V7.40138H5.58542Z" fill="#3D4852"/>
<path d="M11.1836 9.44568V8.01919C11.1836 7.83837 11.14 7.70191 11.053 7.60983C10.9659 7.51774 10.852 7.4717 10.7114 7.4717C10.5339 7.4717 10.3941 7.54369 10.292 7.68768C10.1899 7.83167 10.1388 8.04933 10.1388 8.34065H9.89268C9.89268 8.08449 9.91612 7.86767 9.963 7.69019C10.0116 7.51104 10.0794 7.36705 10.1664 7.25823C10.2552 7.14772 10.359 7.06736 10.4778 7.01713C10.5967 6.96523 10.7281 6.93927 10.8721 6.93927C11.0714 6.93927 11.238 6.98448 11.3719 7.07489C11.5075 7.16363 11.6097 7.2892 11.6783 7.45161C11.7469 7.61401 11.7813 7.80321 11.7813 8.01919V9.44568H11.1836ZM7.87349 9.44568V7.00959H8.39084L8.45614 7.42649C8.5365 7.26409 8.64282 7.1427 8.77509 7.06233C8.90736 6.98029 9.05888 6.93927 9.22966 6.93927C9.43057 6.93927 9.598 6.98448 9.73195 7.07489C9.86756 7.16363 9.96886 7.2892 10.0358 7.45161C10.1045 7.61401 10.1388 7.80321 10.1388 8.01919V9.44568H9.5461V8.01919C9.5461 7.83837 9.50257 7.70191 9.4155 7.60983C9.32844 7.51774 9.21459 7.4717 9.07395 7.4717C8.95508 7.4717 8.8496 7.50435 8.75751 7.56964C8.6671 7.63494 8.59594 7.73372 8.54404 7.86599C8.49214 7.99659 8.46618 8.15983 8.46618 8.35572V9.44568H7.87349Z" fill="#3D4852"/>
<path d="M12.6413 9.44568V6H13.234V9.44568H12.6413Z" fill="#3D4852"/>
<path d="M14.3224 9.30504L13.9306 8.85298L15.568 7.70275V7.95389L13.9306 6.79863L14.3224 6.34658L16 7.56211V8.09453L14.3224 9.30504Z" fill="#3D4852"/>
</svg>
