<svg width="16" height="16" viewBox="0 0 16 16" fill="none" xmlns="http://www.w3.org/2000/svg">
<g clip-path="url(#clip0_2123_60236)">
<path d="M8.97147 5.40094C8.71237 5.53049 8.6001 5.77231 8.6001 6.42869C8.6001 6.42869 8.72965 6.29914 8.93692 6.22141C9.08806 6.16527 9.19602 6.09186 9.27374 6.03573C9.49829 5.86731 9.53284 5.66436 9.53284 5.31026C9.52852 5.31026 9.17442 5.28867 8.97147 5.40094Z" fill="black"/>
<path d="M7.38684 5.55093C7.16229 5.73661 7.10615 6.05616 7.10615 6.05616L6.38069 8.83712L5.78477 6.5614C5.72863 6.31958 5.61636 6.02162 5.44795 5.81434C5.24067 5.55093 4.80885 5.53366 4.75703 5.53366C4.71816 5.53366 4.29066 5.55093 4.06611 5.81434C3.8977 6.02162 3.78542 6.31958 3.72928 6.5614L3.16791 8.83712L2.44245 6.05616C2.44245 6.05616 2.38631 5.7582 2.16176 5.55093C1.80766 5.23138 1.28516 5.30911 1.28516 5.30911L2.667 10.5126C2.667 10.5126 3.11609 10.5515 3.34064 10.4392C3.6386 10.288 3.78974 10.1801 3.95815 9.46758C4.12656 8.8328 4.57566 6.98459 4.61021 6.85504C4.62748 6.7989 4.66634 6.63049 4.77862 6.63049C4.89089 6.63049 4.92976 6.78163 4.94703 6.85504C4.98589 6.98459 5.43067 8.8328 5.59909 9.46758C5.78477 10.1758 5.91432 10.288 6.2166 10.4392C6.44114 10.5515 6.89024 10.5126 6.89024 10.5126L8.26345 5.30911C8.26345 5.30911 7.74094 5.2357 7.38684 5.55093Z" fill="black"/>
<path d="M9.52869 6.14844C9.52869 6.14844 9.43369 6.27798 9.248 6.39026C9.11845 6.46367 9.00618 6.50253 8.87663 6.57594C8.65208 6.68822 8.59595 6.80049 8.59595 6.9689V7.02504V7.30573V7.36187V10.4969C8.59595 10.4969 8.95004 10.5358 9.17459 10.4235C9.47255 10.2724 9.52869 10.1255 9.52869 9.49076V6.35571V6.14844Z" fill="black"/>
<path d="M12.9617 7.92249L14.7149 5.32722C14.7149 5.32722 13.9894 5.19768 13.6137 5.5345C13.3719 5.74178 13.1301 6.13042 13.1301 6.13042L12.4953 7.06316C12.4565 7.1193 12.4219 7.15816 12.3658 7.15816C12.3096 7.15816 12.2535 7.10202 12.2362 7.06316L11.6014 6.13042C11.6014 6.13042 11.3423 5.75905 11.1178 5.5345C10.7464 5.19768 10.0166 5.32722 10.0166 5.32722L11.7137 7.91817L9.97778 10.5091C9.97778 10.5091 10.7421 10.6041 11.1178 10.2673C11.3596 10.06 11.5842 9.70593 11.5842 9.70593L12.219 8.77319C12.2578 8.71705 12.2924 8.67818 12.3485 8.67818C12.4046 8.67818 12.4608 8.73432 12.478 8.77319L13.1128 9.70593C13.1128 9.70593 13.3547 10.06 13.5792 10.2673C13.9506 10.6041 14.6976 10.5091 14.6976 10.5091L12.9617 7.92249Z" fill="black"/>
</g>
<defs>
<clipPath id="clip0_2123_60236">
<rect width="13.4298" height="5.22508" fill="white" transform="translate(1.28516 5.30078)"/>
</clipPath>
</defs>
</svg>
